<?xml version="1.0" encoding="UTF-8"?><svg id="Layer_1" xmlns="http://www.w3.org/2000/svg" viewBox="0 0 30 29.82"><path d="M29.93.71c-.06,1.3-1.46,2.49-2.66,2.43-1.2-.05-2.42.04-3.62-.06-1-.08-1-.17-1.69.39.43.51.86.74,1.63.52.59-.17,1.3-.08,1.94,0,.82.11,1.06.66.62,1.35-.62.96-1.31,1.62-2.71,1.56-2.9-.13-5.81-.04-8.71-.04-4.26,0-8.18,3.88-6.57,8.81.76,2.32,2.93,4.05,6.13,4.21,1.59.08,3.2.02,4.8,0,.41,0,.75.06,1.03.39,2.46,2.94,4.94,5.87,7.41,8.8.12.14.32.31.17.48-.1.11-.35.11-.53.12-.33.02-.65.01-.98.01-2.27,0-2.41.05-3.18-1.96-.31-.8-.69-1.13-1.35-1.57-.71-.48-1.22-1.23-1.73-1.97-.48-.69-.94-1.82-2.38-1.33-.54.18-1.35.27-1.84-.46-.19-.28-.61-.13-.9.01-1.18.59-4.13.3-5.12-.49-.27-.22-.23-.46-.25-.75-.06-.88-.61-1.14-1.34-.67-.56.37-.93-.05-1.26-.34-1.29-1.16-2.35-2.61-2.42-4.25-.05-1.26-.33-2.56-.05-3.83.29-1.32.74-2.58,1.53-3.71.18-.26.37-.52.58-.75.47-.52.92-1.12,1.87-.47-.59-1.13.17-1.48.89-1.88,1.79-1,3.72-1.47,5.79-1.45,1.24.01,2.48,0,3.72,0,.25,0,.61.04.64-.27.04-.41-.37-.38-.64-.38-3.66-.07-7.33-.21-10.55,1.96-.44.3-1.05.64-1.04-.41,0-.47-.37-.71-.87-.69-.46.02-.71.31-.8.7-.1.45.17.71.62.79.9.16.87.55.34,1.13-1.64,1.78-2.66,3.82-2.81,6.22-.02.36-.12.58-.53.76-.75.33-.76.97-.04,1.29.43.19.56.46.62.85.44,3.1,2.59,4.96,5.19,6.52,1.47.88,3.06,1.06,4.75,1.18,1.37.1,2.71-.12,4.06,0,.42.04.72.14,1,.46.72.8,1.66,1.48,2.18,2.38.59,1.02,1.46,1.81,2.09,2.77.28.42.15.56-.36.65-1.6.27-2.47-.61-3.28-1.71-.48-.66-1.03-1.27-1.58-1.88-.23-.25-.57-.58-.91-.28-.33.3-.12.63.18.96.62.7,1.18,1.46,1.74,2.21.27.37.32.61-.35.68-4.17.47-8.01-.42-11.59-2.45-1.62-.91-2.77-2.33-3.8-3.74-1.54-2.09-2.52-4.45-2.89-7.04C-.96,8.78,4.46,1.65,12.45.3,14.46-.05,16.49.09,18.5.04c2.77-.07,5.54-.01,8.32-.02.49,0,.82.05.79.64-.03.78.3,1.05,1.08.6.36-.2.77-.34,1.24-.54ZM15.57,26.39c0-.75-.33-.98-1.01-.79-1.59.43-3.1.23-4.56-.52-.91-.47-1.84-.9-2.66-1.51-.33-.25-.52-.08-.52.32,0,.43.12.74.64.75.41,0,.75.08.98.47.38.64.64,1.59,1.75.76.08-.06.31.04.47.08.88.23,1.78.36,2.7.34.4,0,.77-.03.94.45.16.46.6.27.92.23.32-.03.37-.3.35-.57ZM6.4,23.24c-.31-.48-.55-.9-1.13-.82-.19.02-.33.28-.23.45.29.51.8.36,1.37.38Z" fill="#56ba68"/><path d="M29.99,20.75c0,2.64,0,5.28,0,7.93,0,.26.11.59-.23.75-.4.19-.59-.15-.8-.36-.6-.58-1.4-1.07-1.01-2.12.13-.35-.24-.61-.48-.87-2.9-3.03-5.27-6.48-8.17-9.52-.12-.13-.34-.25-.24-.46.1-.22.34-.14.52-.14,1.1-.02,2.21-.01,3.32-.03.36,0,.48.23.67.45.83,1,1.47,2.12,2.41,3.05.4.4.51.98.56,1.53.03.42.11.81.58.98.17.07.4,0,.39-.15-.02-.4.33-.69.06-1.2-.69-1.31-2.16-2.04-2.7-3.39-.45-1.12-1.7-1.36-2.38-2.2-.07-.09-.32-.12-.46-.08-1.12.32-2.27.07-3.4.16-1.59.14-2.24-1.22-1.97-2.61.07-.35.34-.32.6-.32,4.04,0,8.08,0,12.13-.03.68,0,.62.37.62.79,0,2.61,0,5.22,0,7.83Z" fill="#56ba68"/></svg>