<?xml version="1.0"?><svg id="Layer_1" xmlns="http://www.w3.org/2000/svg" width="240" height="68" viewBox="0 0 240 67.59"><path d="M64.66,1.65c-.13,2.94-3.15,5.64-5.75,5.51-2.6-.12-5.23.1-7.82-.13-2.17-.19-2.15-.38-3.66.88.94,1.15,1.87,1.68,3.53,1.17,1.28-.39,2.8-.17,4.19.02,1.77.24,2.3,1.5,1.34,3.06-1.33,2.17-2.84,3.66-5.86,3.52-6.26-.29-12.54-.09-18.82-.08-9.2,0-17.66,8.79-14.19,19.95,1.63,5.25,6.33,9.17,13.24,9.54,3.44.18,6.91.05,10.36.02.89,0,1.61.13,2.22.89,5.32,6.66,10.68,13.29,16.02,19.93.25.31.69.71.37,1.08-.21.24-.75.24-1.15.26-.7.04-1.41.03-2.11.03-4.89.01-5.2.12-6.87-4.44-.66-1.8-1.5-2.56-2.91-3.56-1.52-1.08-2.64-2.79-3.75-4.46-1.04-1.57-2.04-4.11-5.15-3.01-1.16.41-2.92.62-3.97-1.04-.41-.64-1.32-.3-1.95.03-2.55,1.33-8.93.67-11.05-1.1-.59-.5-.49-1.05-.53-1.69-.14-1.99-1.32-2.58-2.89-1.51-1.22.83-2-.11-2.71-.78-2.8-2.64-5.08-5.92-5.23-9.64-.11-2.85-.7-5.79-.1-8.68.62-2.99,1.6-5.84,3.32-8.4.39-.58.79-1.17,1.25-1.7,1.01-1.18,1.99-2.53,4.04-1.07-1.28-2.56.37-3.35,1.91-4.25,3.87-2.27,8.03-3.34,12.51-3.29,2.68.03,5.36,0,8.04-.02.55,0,1.32.1,1.39-.61.09-.92-.8-.85-1.38-.87-7.91-.17-15.84-.47-22.78,4.43-.96.67-2.27,1.46-2.24-.92.01-1.06-.79-1.61-1.87-1.57-1,.04-1.54.71-1.72,1.59-.21,1.02.36,1.6,1.33,1.78,1.95.37,1.87,1.25.73,2.55-3.53,4.04-5.75,8.66-6.07,14.09-.05.82-.26,1.32-1.15,1.73-1.61.74-1.64,2.2-.09,2.92.93.44,1.22,1.04,1.34,1.92.96,7.03,5.6,11.24,11.21,14.76,3.17,1.99,6.6,2.39,10.26,2.66,2.95.22,5.85-.28,8.77,0,.91.09,1.55.33,2.15,1.04,1.55,1.82,3.59,3.35,4.71,5.38,1.27,2.32,3.16,4.1,4.53,6.28.6.96.32,1.27-.78,1.47-3.45.62-5.35-1.39-7.09-3.87-1.04-1.49-2.23-2.88-3.42-4.26-.49-.57-1.23-1.32-1.96-.64-.72.68-.25,1.42.38,2.17,1.35,1.59,2.56,3.3,3.76,5.01.58.83.7,1.38-.75,1.55-9,1.06-17.3-.96-25.03-5.55-3.49-2.07-5.98-5.28-8.22-8.46-3.32-4.73-5.44-10.08-6.24-15.94C-2.07,19.93,9.63,3.77,26.9.71,31.25-.07,35.62.23,39.98.11c5.98-.16,11.98-.03,17.96-.05,1.06,0,1.77.11,1.71,1.45-.07,1.76.64,2.37,2.32,1.37.78-.46,1.65-.76,2.68-1.23ZM33.65,59.81c.02-1.69-.71-2.21-2.18-1.8-3.43.98-6.7.52-9.84-1.19-1.97-1.07-3.97-2.04-5.75-3.43-.72-.56-1.12-.19-1.12.72,0,.97.27,1.68,1.38,1.7.88.02,1.63.19,2.13,1.06.83,1.44,1.38,3.6,3.78,1.72.18-.14.67.08,1.01.17,1.91.52,3.85.81,5.83.78.86-.02,1.67-.06,2.03,1.03.35,1.05,1.29.61,1.98.53.69-.08.81-.68.75-1.29ZM13.82,52.69c-.67-1.1-1.18-2.03-2.44-1.86-.41.05-.71.63-.51,1.01.62,1.15,1.72.81,2.95.85Z" fill="#3acc69"></path><path d="M64.79,47.03c0,5.99,0,11.97-.02,17.96,0,.59.23,1.34-.5,1.7-.87.43-1.26-.35-1.73-.82-1.3-1.32-3.02-2.43-2.18-4.8.28-.8-.51-1.39-1.03-1.96-6.27-6.87-11.38-14.69-17.65-21.56-.26-.29-.73-.57-.51-1.05.21-.49.73-.31,1.12-.32,2.39-.04,4.78-.03,7.16-.08.79-.02,1.05.52,1.44,1.02,1.79,2.26,3.19,4.81,5.2,6.92.87.91,1.11,2.21,1.21,3.47.07.96.24,1.83,1.26,2.23.38.15.87,0,.85-.33-.04-.9.72-1.56.14-2.72-1.48-2.97-4.66-4.61-5.83-7.67-.98-2.54-3.67-3.08-5.14-4.98-.16-.2-.69-.27-.99-.18-2.42.73-4.9.15-7.34.37-3.44.31-4.84-2.77-4.26-5.91.14-.79.74-.73,1.3-.73,8.73-.01,17.47,0,26.2-.06,1.47,0,1.33.84,1.33,1.78,0,5.92,0,11.83,0,17.75Z" fill="#3acc69"></path><path d="M99.43.37c3.58,0,7.15.1,10.72-.04,2-.08,2.44.8,2.26,2.51-.16,1.5.55,3.38-2.18,3.33-6.06-.13-12.13-.17-18.19-.14-5.7.03-6.88,1.28-6.85,6.9.01,2.49.14,4.98.17,7.47.03,2.81,1.68,4.31,4.22,4.42,4.97.21,9.96.16,14.94.08,3.01-.05,2.38-2.42,2.51-4.3.16-2.25-1.48-1.67-2.64-1.71-2.27-.06-4.55-.11-6.82,0-2.05.1-2.57-.82-2.54-2.72.03-1.82.33-2.8,2.5-2.7,4.22.19,8.45.2,12.67.11,2.16-.05,3.16.53,2.93,2.9-.2,2.04-.01,4.11-.01,6.17,0,4.26-1.75,6.77-5.96,7.38-7.1,1.04-14.27,1.03-21.36-.11-3.81-.62-6.35-3.8-6.5-7.84-.16-4.33-.17-8.67.01-12.99.21-5,3.42-8.29,8.43-8.55,3.89-.21,7.8-.04,11.7-.04v-.11Z" fill="#3acc69"></path><path d="M181.32,15.2c0-4.32.1-8.65-.03-12.97-.1-3.11,2.11-1.88,3.57-2.16,1.7-.33,2.21.34,2.28,2.06.23,6.51.3,6.43,6.88,6.53,4.14.06,8.47-.84,12.18,2.1,1.1.87,1.83,1.66,1.83,3.12-.01,2.81.18,5.61.14,8.42-.07,4.77-2.37,7.73-7.08,8.04-5.92.38-11.88.1-17.82.13-1.62,0-1.91-.91-1.89-2.31.06-4.32.02-8.64.02-12.96-.02,0-.04,0-.06,0ZM193.36,25.86c1.62,0,3.25.08,4.87-.02,2.07-.14,4.16-.83,4.21-3.2.05-2.98,1.55-6.34-1.37-8.83-.57-.49-1.63-.52-2.47-.55-1.95-.08-3.9-.04-5.85-.03q-5.91.02-5.93,5.78-.02,6.63,6.54,6.85Z" fill="#3acc69"></path><path d="M143.04,51.22c0-4.11.07-8.23-.03-12.34-.05-1.9.72-2.4,2.5-2.34,1.69.05,2.78.09,2.85,2.35.16,5.63.29,5.63,6.08,5.57,2.38-.02,4.77-.14,7.14-.02,4.9.24,7.52,2.94,7.73,7.77.49,11.36-1.54,13.49-12.95,13.49-3.68,0-7.36-.08-11.04,0-1.85.05-2.46-.66-2.41-2.47.1-4,.03-8.01.03-12.01.03,0,.06,0,.1,0ZM155.55,48.91q-7.26.04-7.16,7.39c0,.43.07.87.02,1.3-.25,2.17.52,3.18,2.87,3.02,2.37-.16,4.76.03,7.14.02,4.48-.01,5.28-.82,5.34-5.29.09-6.17-.18-6.46-6.27-6.45-.65,0-1.3,0-1.95,0Z" fill="#3acc69"></path><path d="M123.51,44.34c2.38,0,4.77-.1,7.15.02,4.95.25,7.47,2.9,7.51,7.86.03,3.68.04,7.36-.03,11.04-.06,2.93-1.21,4.03-3.83,2.86-2.1-.94-3.91-.51-5.91-.48-3.67.06-7.36.53-11-.37-3.92-.97-5.04-2.63-4.84-7.12.15-3.29,2.21-5.49,5.86-5.73,3.45-.23,6.93.02,10.39-.15,1.28-.06,3.57,1.03,3.66-1.17.1-2.32-2.2-2.21-3.94-2.23-3.79-.04-7.58-.08-11.37-.03-1.7.02-2.86-.08-2.85-2.36.02-2.16,1.17-2.17,2.69-2.14,2.17.04,4.33.01,6.5.01,0,0,0-.02,0-.02ZM125.9,56.61c0,.06,0,.11,0,.17-1.94,0-3.88-.05-5.81.02-1.11.04-1.79.7-1.87,1.84-.08,1.07.32,2.13,1.39,2.25,3.96.46,7.94.69,11.84-.42,1.32-.37,1.26-1.57,1.18-2.69-.09-1.27-1.03-1.17-1.89-1.17-1.62,0-3.23,0-4.85,0Z" fill="#3acc69"></path><path d="M131.54,30.98c-14.96.98-15.27-5.46-14.02-16.79.35-3.14,2.48-5.33,6.01-5.74,4.86-.57,9.71-.63,14.53.11,4.66.71,7.09,3.37,7.23,8.11.3,9.92.47,14.16-13.76,14.31ZM130.89,25.95s0-.02,0-.03c1.51,0,3.04.14,4.54-.03,2.12-.24,3.8-1.37,3.96-3.63.62-8.41-.06-9.41-7.35-9.16-.43.02-.87,0-1.3.01-7.55.05-8.38,1-7.75,8.5.23,2.75,1.72,4.1,4.33,4.33,1.18.1,2.38.02,3.57.02Z" fill="#3acc69"></path><path d="M162.57,30.78c-2.69.06-5.41.37-8.06-.49-3.97-1.29-6.36-5.19-5.74-9.48.12-.85.19-1.71.21-2.57.17-7.08,3.12-10.06,10.17-10.14,3.46-.04,6.93-.12,10.37.43,5.04.81,7.38,3.44,7.44,8.49.02,1.62.02,3.25-.04,4.87-.2,5.91-2.56,8.4-8.51,8.86-1.94.15-3.9.02-5.84.02ZM162.93,13.09s0,.05,0,.08c-1.51,0-3.03-.07-4.53.02-1.83.1-3.26,1.09-3.39,2.9-.51,7.13-.99,10.45,7.61,9.98,1.4-.08,2.82.07,4.21-.06,1.93-.18,3.56-.96,4.19-3,2.07-6.74-.15-9.83-7.11-9.91-.32,0-.65,0-.97,0Z" fill="#3acc69"></path><path d="M226.02,30.97c-2.27-.1-4.56,0-6.79-.35-4.64-.72-6.95-3.49-7.17-8.19-.56-12.04,1.64-14.34,13.67-14.35,2.49,0,4.98.04,7.43.54,4.45.9,6.68,3.6,6.81,8.15.34,12.04-1.66,14.06-13.95,14.2ZM226.13,13.08s0,.05,0,.08c-1.62,0-3.25-.12-4.85.03-2.09.19-3.23,1.39-3.43,3.58-.73,8.11.25,9.21,8.43,9.25,1.19,0,2.39.1,3.56-.05,2.06-.26,4.01-1.2,4.17-3.41.58-8.01.59-9.91-7.22-9.48-.22.01-.43,0-.65,0Z" fill="#3acc69"></path><path d="M186.8,44.35c2.49,0,4.98.06,7.47-.02,1.6-.05,2.03.69,2.01,2.16-.02,1.51-.25,2.47-2.11,2.43-4.22-.07-8.45-.02-12.67.03-1.11.01-2.65-.36-2.67,1.47-.02,1.85,1.44,1.81,2.78,1.86,3.78.15,7.56-.09,11.35.42,3.08.42,4.27,2.31,4.64,4.91.43,3.01-.43,5.61-3.43,7.03-1.49.71-3.1,1.01-4.73,1.02-4.66.02-9.31-.09-13.97-.07-1.77,0-2.47-.57-2.44-2.46.04-1.81.51-2.48,2.41-2.42,4.22.13,8.45.1,12.67.03,1.5-.02,3.76.54,3.68-1.91-.08-2.26-2.26-1.9-3.81-1.94-3.03-.08-6.07.03-9.1-.11-3.66-.17-5.83-2.23-6.02-5.52-.22-3.77,1.68-6.31,5.5-6.7,2.78-.29,5.62-.06,8.44-.06,0-.05,0-.1,0-.15Z" fill="#3acc69"></path><path d="M83.59,51.12c0-3.46-.06-6.92.02-10.37.05-1.91-1.04-4.34,2.8-4.3,3.59.04,2.68,2.27,2.7,4.12.06,4.97,0,9.94.03,14.91.04,4.65.07,4.66,4.59,4.67,4.54.01,9.08.11,13.62-.02,2.06-.06,2.93.48,2.87,2.68-.05,1.93-.38,2.99-2.66,2.96-7.35-.11-14.7-.1-22.05-.04-1.73.01-2.25-.64-2.21-2.29.08-4.1.03-8.21.03-12.31.09,0,.18,0,.27,0Z" fill="#3acc69"></path></svg>
